# xmcd CD database file
#
# Track frame offsets:
#	150
#	27917
#	56787
#	75309
#	107478
#	130157
#	145572
#	170711
#	193628
#
# Disc length: 2974 seconds
#
# Revision: 0
# Processed by: cddbd v1.5.2PL0 Copyright (c) Steve Scherf et al.
# Submitted via: CDex 1.70beta2
#
DISCID=700b9c09
DTITLE=Rainer Tempel, Dizzy Krisch - Lieder aus der Gartenstra￟e
DYEAR=2006
DGENRE=Jazz
TTITLE0=Ecke Neckarbrücke
TTITLE1=Nr. 12
TTITLE2=Nr. 14
TTITLE3=Synagogenplatz
TTITLE4=Nr. 50
TTITLE5=Froschteich
TTITLE6=Nr. 159
TTITLE7=The Snake
TTITLE8=Black Cotton
EXTD=YEAR: 2006
EXTT0=
EXTT1=
EXTT2=
EXTT3=
EXTT4=
EXTT5=
EXTT6=
EXTT7=
EXTT8=
PLAYORDER=
